<svg width="300px" height="117px" viewBox="0 0 602 234" fill="none" xmlns="http://www.w3.org/2000/svg" preserveAspectRatio="none">
<g clip-path="url(#clip0_1801_475)">
<path d="M510.525 97.4661C460.624 88.9348 451.686 77.2889 451.686 59.0075C451.686 36.5958 471.999 25.627 503.416 25.627C549.593 25.627 558.869 45.8042 563.473 61.2418H594.62C592.182 38.5594 575.526 0.439247 504.364 0.439247C456.629 0.439247 420.269 22.8509 420.269 62.1898C420.269 92.7942 435.978 113.852 501.588 125.227C558.26 134.977 570.244 148.519 570.244 170.592C570.244 191.378 553.588 208.441 510.457 208.441C467.327 208.441 448.842 190.16 440.853 163.685H411.332C410.925 164.972 410.384 166.326 409.977 167.613C418.576 206.748 449.249 233.696 508.291 233.696C574.239 233.696 601.932 203.092 601.932 167.477C601.932 136.263 589.271 111.346 510.457 97.5338L510.525 97.4661Z" fill="#0E1854"/>
<path d="M32.6357 115.409C32.6357 163.347 61.2766 207.154 115.511 207.154C169.746 207.154 197.168 165.581 197.168 117.034C197.168 68.4866 168.46 26.8456 113.683 26.8456C62.563 26.8456 32.7034 67.8095 32.7034 115.409M229.804 116.357C229.804 179.394 187.892 233.629 114.631 233.629C41.3702 233.629 0 181.899 0 116.018C0 53.9292 45.2973 0.371429 115.511 0.371429C185.726 0.371429 229.804 53.9292 229.804 116.357Z" fill="#0E1854"/>
<path d="M380.253 163.617C368.269 189.279 351.883 207.087 310.784 207.087C276.658 207.087 252.012 189.008 239.419 161.789C235.898 174.248 230.481 185.894 223.372 196.253C242.262 219.139 271.106 233.561 309.294 233.561C371.654 233.561 399.076 201.873 411.467 163.617H380.321H380.253Z" fill="#FE5000"/>
<path d="M310.784 0.371468C266.028 0.371468 232.038 22.106 213.418 54.5386C224.049 72.6169 229.804 93.9452 229.804 116.357C229.804 116.56 229.804 116.763 229.804 116.966C229.804 116.966 229.804 116.56 229.804 116.357C229.804 64.6949 260.273 26.5071 310.513 26.5071C353.644 26.5071 371.18 48.2417 380.727 71.8721H412.483C403.816 35.0384 373.956 0.371468 310.784 0.371468Z" fill="#FE5000"/>
</g>
<defs>
<clipPath id="clip0_1801_475">
<rect width="602" height="233.257" fill="white" transform="translate(0 0.371429)"/>
</clipPath>
</defs>
</svg>
